<svg width="2619" height="226" viewBox="0 0 2619 226" fill="none" xmlns="http://www.w3.org/2000/svg">
<path d="M0 190.957L109.125 171.861C218.25 152.765 436.5 133.296 654.75 152.392C873 171.487 1091.25 210.483 1309.5 223.254C1527.75 235.546 1746 204.085 1964.25 178.186C2182.5 152.765 2400.75 152.765 2509.88 152.765H2619V0H2509.88C2400.75 0 2182.5 0 1964.25 0C1746 0 1527.75 0 1309.5 0C1091.25 0 873 0 654.75 0C436.5 0 218.25 0 109.125 0H0V190.957Z" fill="#5BBADA"/>
<path d="M0 173.193L109.125 155.874C218.25 138.555 436.5 120.896 654.75 138.216C873 155.535 1091.25 190.904 1309.5 202.486C1527.75 213.635 1746 185.1 1964.25 161.611C2182.5 138.555 2400.75 138.555 2509.88 138.555H2619V0H2509.88C2400.75 0 2182.5 0 1964.25 0C1746 0 1527.75 0 1309.5 0C1091.25 0 873 0 654.75 0C436.5 0 218.25 0 109.125 0H0V173.193Z" fill="#8BCDE2"/>
<path d="M0 157.967L109.125 142.171C218.25 126.374 436.5 110.268 654.75 126.065C873 141.862 1091.25 174.121 1309.5 184.685C1527.75 194.854 1746 168.828 1964.25 147.403C2182.5 126.374 2400.75 126.374 2509.88 126.374H2619V0H2509.88C2400.75 0 2182.5 0 1964.25 0C1746 0 1527.75 0 1309.5 0C1091.25 0 873 0 654.75 0C436.5 0 218.25 0 109.125 0H0V157.967Z" fill="#1080BB"/>
</svg>
